<svg version="1.1" id="Layer_1" xmlns="http://www.w3.org/2000/svg" xmlns:xlink="http://www.w3.org/1999/xlink" x="0px" y="0px"
	 width="100%" viewBox="0 0 512 512" enable-background="new 0 0 512 512" xml:space="preserve">
<path fill="#000000" opacity="1.000000" stroke="none" 
	d="
M1.000000,172.000000 
	C1.000000,114.666664 1.000000,57.833332 1.000000,1.000000 
	C171.666672,1.000000 342.333344,1.000000 513.000000,1.000000 
	C513.000000,171.666672 513.000000,342.333344 513.000000,513.000000 
	C342.333344,513.000000 171.666672,513.000000 1.000000,513.000000 
	C1.000000,399.500000 1.000000,286.000000 1.000000,172.000000 
M185.029968,196.932343 
	C184.085617,211.197479 186.610321,224.671463 194.253952,237.683502 
	C199.947327,247.096313 207.300949,254.886826 216.401566,261.136383 
	C233.717743,273.027771 253.033783,275.837158 272.918854,271.689880 
	C292.945465,267.513062 308.832367,256.275299 319.724274,237.682556 
	C326.810425,225.030441 330.308990,211.574829 328.967987,196.119476 
	C328.641937,192.717072 328.681885,189.230515 327.922485,185.927750 
	C325.467468,175.250351 321.721039,165.119629 314.010925,156.200485 
	C296.527832,134.064453 273.053162,126.095154 245.945602,129.335312 
	C227.843079,131.499115 212.685349,140.607803 200.434235,155.044373 
	C200.331223,155.355850 200.228210,155.667343 200.000732,156.470673 
	C199.959625,156.634735 199.918518,156.798782 199.261246,157.249878 
	C190.635147,168.740158 185.177353,181.382797 185.029968,196.932343 
M33.031162,236.926743 
	C33.076149,243.284851 33.121132,249.642960 33.031239,256.929688 
	C33.076286,266.286407 33.121330,275.643158 33.031563,285.928619 
	C33.031563,297.519714 33.031563,309.110809 33.031563,320.590149 
	C100.079079,320.590149 166.446365,320.590149 232.692932,320.590149 
	C232.692932,317.914673 232.692932,315.652496 232.692932,312.813416 
	C227.339523,312.813416 222.281967,312.813416 217.287109,312.813416 
	C217.287109,307.294159 217.287109,302.364777 217.287109,296.862366 
	C222.620209,296.862366 227.680130,296.862366 233.000015,296.862366 
	C233.000015,293.965607 232.784042,291.624786 233.048141,289.339478 
	C233.499695,285.431946 231.680664,283.898224 227.674652,283.272644 
	C212.411438,277.567841 199.256622,268.886993 188.816162,255.337173 
	C184.821732,248.891251 180.827301,242.445312 176.714172,235.279709 
	C174.753723,229.519119 172.793259,223.758530 170.966507,217.142288 
	C170.589111,209.761566 170.211716,202.380844 169.968689,194.126846 
	C171.590378,186.084717 173.212082,178.042587 175.159256,169.348511 
	C176.816742,166.022385 178.522903,162.719482 180.122498,159.365753 
	C184.660080,149.852280 191.947510,142.497620 199.733536,134.759491 
	C200.441147,134.366211 201.226242,134.068329 201.845093,133.565765 
	C219.878891,118.920692 240.246307,112.068703 263.658356,113.885780 
	C279.782959,115.137276 294.150330,120.475822 307.889008,129.957916 
	C314.651154,136.637115 321.413330,143.316299 328.268890,150.674988 
	C332.568481,159.115311 336.868073,167.555618 341.041077,176.798172 
	C344.402679,186.965576 344.030243,197.507095 344.031281,208.857147 
	C342.076477,217.238297 340.121674,225.619431 337.842834,234.644409 
	C332.545349,243.060959 327.247864,251.477524 321.341095,260.180817 
	C313.104340,269.304779 302.815643,275.584808 291.369263,281.246948 
	C280.641449,285.387573 280.638397,285.387726 281.122772,295.692444 
	C281.136322,295.980652 281.386505,296.257690 281.777344,297.046600 
	C286.605804,297.046600 291.680115,297.046600 296.781860,297.046600 
	C296.936401,299.037567 297.051422,300.519531 297.032135,302.915131 
	C297.032135,306.178162 297.032135,309.441223 297.032135,313.249329 
	C291.261292,313.249329 286.203400,313.249329 281.307953,313.249329 
	C281.307953,316.097595 281.307953,318.357391 281.307953,320.685822 
	C347.945282,320.685822 414.276215,320.685822 480.730286,320.685822 
	C480.838776,319.751404 480.980347,319.112122 480.976532,318.473694 
	C480.943726,312.982849 480.884735,307.492188 480.967896,301.077301 
	C480.923065,296.384430 480.878204,291.691528 480.967224,286.070038 
	C480.922455,277.712952 480.877716,269.355865 480.967163,260.070190 
	C480.922668,251.713058 480.878174,243.355927 480.967529,234.070053 
	C480.922791,225.046173 480.878021,216.022308 480.967010,206.069717 
	C480.922211,196.045502 480.877411,186.021286 480.966370,175.068695 
	C480.922028,166.712173 480.877655,158.355637 480.968048,149.070541 
	C480.923096,141.713181 480.878143,134.355804 480.967651,126.069824 
	C480.967651,116.479271 480.967651,106.888718 480.967651,97.312164 
	C331.333557,97.312164 182.352905,97.312164 33.251736,97.312164 
	C33.149071,98.249657 33.016014,98.890091 33.018181,99.530060 
	C33.058174,111.352516 33.114315,123.174904 33.029541,135.926132 
	C33.075066,147.284210 33.120586,158.642303 33.029667,170.928696 
	C33.075195,179.285843 33.120724,187.643005 33.031010,196.928589 
	C33.076363,203.951706 33.121716,210.974808 33.031773,218.925598 
	C33.076618,224.616470 33.121464,230.307358 33.031162,236.926743 
M308.967712,423.120972 
	C308.208923,415.823151 307.450104,408.525330 306.695587,401.268860 
	C273.312775,401.268860 240.387726,401.268860 207.180969,401.268860 
	C206.495636,409.004395 205.831329,416.502594 204.773209,424.735962 
	C203.709671,432.607635 202.646133,440.479279 201.546890,448.615173 
	C238.889725,448.615173 275.349030,448.615173 312.321655,448.615173 
	C311.689697,443.135590 311.182861,438.083801 310.498932,433.056122 
	C310.085693,430.018341 309.397583,427.017975 308.967712,423.120972 
M477.999298,44.194092 
	C473.251038,37.732700 467.588654,32.974861 458.943481,32.976887 
	C324.288696,33.008434 189.633942,32.995419 54.979160,33.006550 
	C45.569630,33.007328 39.460823,38.146736 34.802471,46.701191 
	C34.256680,50.467808 33.710888,54.234428 33.028038,58.929337 
	C33.028038,66.188980 33.028038,73.448624 33.028038,80.690025 
	C182.666153,80.690025 331.644287,80.690025 480.833038,80.690025 
	C480.833038,74.922112 480.833038,69.460716 480.968384,63.078163 
	C480.620392,56.914906 482.492279,50.395130 477.999298,44.194092 
M33.032894,358.898743 
	C33.022354,359.564636 33.088043,360.241943 32.990002,360.894714 
	C31.093920,373.518616 44.629269,385.279388 56.902275,385.243683 
	C190.609085,384.854828 324.317474,385.003723 458.025421,384.968781 
	C460.124695,384.968231 462.316132,384.798950 464.307953,384.193359 
	C476.451996,380.501160 481.582886,372.271912 480.967651,357.071777 
	C480.967651,350.480499 480.967651,343.889221 480.967651,337.313477 
	C331.327423,337.313477 182.361618,337.313477 33.166725,337.313477 
	C33.166725,344.415985 33.166725,351.208221 33.032894,358.898743 
M209.500000,465.000610 
	C195.842728,465.000885 182.185318,464.963654 168.528275,465.020050 
	C163.104385,465.042419 161.102936,467.133270 161.000412,472.508759 
	C160.877625,478.945526 162.916946,480.994812 169.576233,480.995728 
	C227.869461,481.003876 286.162689,481.000610 344.455902,480.999176 
	C345.455048,480.999146 346.712524,481.362823 347.403961,480.896362 
	C349.324615,479.600677 351.892029,478.296295 352.628174,476.387604 
	C355.158813,469.826141 351.469330,465.007263 344.407867,465.005707 
	C299.771912,464.995941 255.135956,465.000671 209.500000,465.000610 
M262.238739,296.993958 
	C268.273376,295.408783 263.468567,291.154266 264.919678,288.424255 
	C259.317932,288.424255 254.272446,288.424255 249.255615,288.424255 
	C249.255615,291.349579 249.255615,293.931244 249.255615,296.998779 
	C253.427475,296.998779 257.358307,296.998779 262.238739,296.993958 
M264.096863,320.843292 
	C264.476746,318.398834 264.856628,315.954376 265.264893,313.327423 
	C259.379425,313.327423 254.344788,313.327423 249.395660,313.327423 
	C249.395660,316.034180 249.395660,318.403168 249.395660,320.970123 
	C254.246399,320.970123 258.705078,320.970123 264.096863,320.843292 
z"/>
<path fill="#B31D9F" opacity="1.000000" stroke="none" 
	d="
M33.167046,134.997314 
	C33.114315,123.174904 33.058174,111.352516 33.018181,99.530060 
	C33.016014,98.890091 33.149071,98.249657 33.251736,97.312164 
	C182.352905,97.312164 331.333557,97.312164 480.967651,97.312164 
	C480.967651,106.888718 480.967651,116.479271 480.442383,126.534409 
	C471.686371,127.001236 463.451599,126.863708 455.227692,127.102013 
	C453.119965,127.163094 451.046631,128.411102 448.493652,129.066635 
	C432.367371,129.050919 416.704926,129.082382 400.781433,128.825516 
	C395.244690,126.354126 390.025208,125.686073 384.495544,129.066666 
	C379.036560,129.050949 374.039551,129.082397 368.780487,128.824799 
	C366.492310,128.025101 364.469666,127.088219 362.439484,127.071640 
	C347.181152,126.947021 331.918793,126.858589 316.664062,127.123222 
	C313.521301,127.177742 310.405029,128.760803 307.276550,129.639343 
	C294.150330,120.475822 279.782959,115.137276 263.658356,113.885780 
	C240.246307,112.068703 219.878891,118.920692 201.845093,133.565765 
	C201.226242,134.068329 200.441147,134.366211 198.947617,134.893692 
	C180.496811,135.017899 162.831924,135.007904 145.100403,134.559113 
	C144.954147,132.529129 144.874527,130.937973 144.792374,129.295929 
	C139.359512,129.295929 134.306946,129.295929 129.175293,129.295929 
	C129.049515,131.390839 128.941238,133.194351 128.377167,134.998199 
	C123.003273,134.998337 118.085159,134.998123 113.100388,134.559052 
	C112.953392,132.524933 112.873055,130.929688 112.790451,129.289444 
	C96.690376,129.289444 80.983261,129.289444 65.182259,129.289444 
	C65.054237,131.381638 64.943596,133.189743 64.374771,134.998199 
	C53.666737,134.998138 43.416893,134.997726 33.167046,134.997314 
z"/>
<path fill="#7E16C3" opacity="1.000000" stroke="none" 
	d="
M480.833282,358.000580 
	C481.582886,372.271912 476.451996,380.501160 464.307953,384.193359 
	C462.316132,384.798950 460.124695,384.968231 458.025421,384.968781 
	C324.317474,385.003723 190.609085,384.854828 56.902275,385.243683 
	C44.629269,385.279388 31.093920,373.518616 32.990002,360.894714 
	C33.088043,360.241943 33.022354,359.564636 33.557846,358.449463 
	C166.999619,358.000092 299.916443,358.000061 432.900330,358.456970 
	C432.967346,362.157013 432.967346,365.400085 432.967346,368.660370 
	C438.653992,368.660370 443.671356,368.660370 449.166718,368.660370 
	C449.166718,364.885651 449.166718,361.442871 449.624939,358.000061 
	C460.333191,358.000183 470.583221,358.000397 480.833282,358.000580 
z"/>
<path fill="#8317BF" opacity="1.000000" stroke="none" 
	d="
M432.833252,358.000031 
	C299.916443,358.000061 166.999619,358.000092 33.624763,358.000305 
	C33.166725,351.208221 33.166725,344.415985 33.166725,337.313477 
	C182.361618,337.313477 331.327423,337.313477 480.967651,337.313477 
	C480.967651,343.889221 480.967651,350.480499 480.900452,357.536194 
	C470.583221,358.000397 460.333191,358.000183 449.557495,357.563721 
	C448.955597,355.866211 448.879303,354.604950 448.799500,353.285675 
	C443.360504,353.285675 438.298615,353.285675 433.193939,353.285675 
	C433.059418,355.044006 432.946320,356.522003 432.833252,358.000031 
z"/>
<path fill="#BC1E99" opacity="1.000000" stroke="none" 
	d="
M480.833038,63.999317 
	C480.833038,69.460716 480.833038,74.922112 480.833038,80.690025 
	C331.644287,80.690025 182.666153,80.690025 33.028038,80.690025 
	C33.028038,73.448624 33.028038,66.188980 33.554733,58.465134 
	C44.332554,58.000854 54.583672,58.000774 64.903397,58.444672 
	C64.972008,60.805050 64.972008,62.721447 64.972008,64.690552 
	C70.645340,64.690552 75.686661,64.690552 80.832977,64.690552 
	C80.953712,62.259323 81.059464,60.130035 81.621117,58.000889 
	C86.996284,58.000916 91.915535,58.000805 96.903397,58.444672 
	C96.972008,60.805050 96.972008,62.721447 96.972008,64.690552 
	C102.645340,64.690552 107.686661,64.690552 112.832977,64.690552 
	C112.953712,62.259323 113.059464,60.130035 113.621117,58.000889 
	C118.996284,58.000916 123.915535,58.000805 128.903397,58.444656 
	C128.972000,60.787201 128.972000,62.685783 128.972000,65.461075 
	C134.773041,64.937798 139.970047,64.469009 145.625214,64.000145 
	C257.666626,63.999817 369.249817,63.999569 480.833038,63.999317 
z"/>
<path fill="#8C18B9" opacity="1.000000" stroke="none" 
	d="
M228.045334,283.887238 
	C231.680664,283.898224 233.499695,285.431946 233.048141,289.339478 
	C232.784042,291.624786 233.000015,293.965607 233.000015,296.862366 
	C227.680130,296.862366 222.620209,296.862366 217.287109,296.862366 
	C217.287109,302.364777 217.287109,307.294159 217.287109,312.813416 
	C222.281967,312.813416 227.339523,312.813416 232.692932,312.813416 
	C232.692932,315.652496 232.692932,317.914673 232.692932,320.590149 
	C166.446365,320.590149 100.079079,320.590149 33.031563,320.590149 
	C33.031563,309.110809 33.031563,297.519714 33.557030,285.464294 
	C44.332870,284.999817 54.583244,284.999634 64.901886,285.432281 
	C64.472748,289.784302 67.305000,288.987366 69.476311,288.988922 
	C93.284363,289.006104 117.092430,289.003815 140.900482,288.987885 
	C142.195038,288.987030 143.489471,288.818390 144.783279,288.727905 
	C144.928864,287.311157 145.047623,286.155334 145.624619,284.999695 
	C170.980179,284.999817 195.877594,285.030396 220.774689,284.951172 
	C223.199341,284.943451 225.621841,284.258057 228.045334,283.887238 
z"/>
<path fill="#C01E96" opacity="1.000000" stroke="none" 
	d="
M64.834793,58.000694 
	C54.583672,58.000774 44.332554,58.000854 33.623264,58.000988 
	C33.710888,54.234428 34.256680,50.467808 35.405144,46.359142 
	C39.147457,46.342892 42.287006,46.952625 45.426758,46.953682 
	C186.781113,47.001247 328.135468,47.007736 469.489777,46.908005 
	C472.342743,46.905991 475.194824,45.591843 478.047302,44.889854 
	C482.492279,50.395130 480.620392,56.914906 480.900696,63.538742 
	C369.249817,63.999569 257.666626,63.999817 145.557465,63.537449 
	C145.031540,58.502754 145.031540,53.930679 145.031540,49.322750 
	C139.353287,49.322750 134.323288,49.322750 128.834793,49.322750 
	C128.834793,52.428089 128.834793,55.214390 128.834793,58.000694 
	C123.915535,58.000805 118.996284,58.000916 113.553543,57.549217 
	C113.030060,54.512138 113.030060,51.926876 113.030060,49.323650 
	C107.351494,49.323650 102.321182,49.323650 96.834793,49.323650 
	C96.834793,52.429325 96.834793,55.215008 96.834793,58.000694 
	C91.915535,58.000805 86.996284,58.000916 81.553543,57.549217 
	C81.030060,54.512138 81.030060,51.926876 81.030060,49.323650 
	C75.351494,49.323650 70.321182,49.323650 64.834793,49.323650 
	C64.834793,52.429325 64.834793,55.215008 64.834793,58.000694 
z"/>
<path fill="#C21F95" opacity="1.000000" stroke="none" 
	d="
M478.023315,44.541973 
	C475.194824,45.591843 472.342743,46.905991 469.489777,46.908005 
	C328.135468,47.007736 186.781113,47.001247 45.426758,46.953682 
	C42.287006,46.952625 39.147457,46.342892 35.587090,46.008770 
	C39.460823,38.146736 45.569630,33.007328 54.979160,33.006550 
	C189.633942,32.995419 324.288696,33.008434 458.943481,32.976887 
	C467.588654,32.974861 473.251038,37.732700 478.023315,44.541973 
z"/>
<path fill="#A31BAA" opacity="1.000000" stroke="none" 
	d="
M480.832611,175.997070 
	C480.877411,186.021286 480.922211,196.045502 480.442078,206.534332 
	C437.796753,206.999344 395.676270,206.978592 353.555939,207.043167 
	C350.425781,207.047974 347.296539,207.665115 344.166870,207.997604 
	C344.030243,197.507095 344.402679,186.965576 341.562378,176.397659 
	C351.000000,175.997452 359.916321,175.997757 369.092529,176.355408 
	C378.766541,176.807526 388.180634,176.938812 397.594910,176.951340 
	C398.785278,176.952911 399.976501,176.331116 401.623108,175.998169 
	C406.996796,175.998169 411.914734,175.998123 417.092529,176.355408 
	C426.766541,176.807526 436.180634,176.938812 445.594910,176.951309 
	C446.785278,176.952896 447.976501,176.331100 449.625488,175.998184 
	C460.333313,175.997849 470.582977,175.997467 480.832611,175.997070 
z"/>
<path fill="#AB1CA4" opacity="1.000000" stroke="none" 
	d="
M145.167038,134.997910 
	C162.831924,135.007904 180.496811,135.017899 198.637543,135.035400 
	C191.947510,142.497620 184.660080,149.852280 180.122498,159.365753 
	C178.522903,162.719482 176.816742,166.022385 174.538422,169.674576 
	C164.333771,170.000732 154.749924,170.000839 145.099365,169.549301 
	C145.032654,166.509033 145.032654,163.920395 145.032654,161.318207 
	C134.011749,161.318207 123.664719,161.318207 112.833900,161.318207 
	C112.833900,164.422363 112.833900,167.211609 112.378052,170.001038 
	C107.003494,170.001114 102.084801,170.001022 97.099380,169.549316 
	C97.032654,166.509048 97.032654,163.920395 97.032654,161.318207 
	C86.011757,161.318207 75.664726,161.318207 64.833900,161.318207 
	C64.833900,164.422363 64.833900,167.211609 64.375656,170.001038 
	C53.666977,170.000931 43.416546,170.000656 33.166111,170.000381 
	C33.120586,158.642303 33.075066,147.284210 33.098293,135.461731 
	C43.416893,134.997726 53.666737,134.998138 64.443398,135.451447 
	C64.970215,138.826431 64.970215,141.748489 64.970215,144.681015 
	C81.323807,144.681015 96.993576,144.681015 113.167046,144.681015 
	C113.167046,141.246979 113.167046,138.122452 113.167046,134.997910 
	C118.085159,134.998123 123.003273,134.998337 128.445801,135.451447 
	C128.970215,138.817841 128.970215,141.731354 128.970215,144.667450 
	C134.650406,144.667450 139.673721,144.667450 145.167038,144.667450 
	C145.167038,141.225372 145.167038,138.111649 145.167038,134.997910 
z"/>
<path fill="#9319B4" opacity="1.000000" stroke="none" 
	d="
M227.859985,283.579956 
	C225.621841,284.258057 223.199341,284.943451 220.774689,284.951172 
	C195.877594,285.030396 170.980179,284.999817 145.557907,284.541382 
	C145.032974,280.493134 145.032974,276.903351 145.032974,273.319031 
	C118.002823,273.319031 91.683159,273.319031 64.833618,273.319031 
	C64.833618,277.421875 64.833618,281.210663 64.833618,284.999451 
	C54.583244,284.999634 44.332870,284.999817 33.624435,284.999939 
	C33.121330,275.643158 33.076286,266.286407 33.556755,256.465149 
	C44.332783,256.000793 54.583290,256.000946 65.094887,256.357117 
	C74.767830,256.808197 84.179634,256.939758 93.591606,256.952637 
	C94.782700,256.954285 95.974648,256.333527 97.622047,256.000977 
	C102.996529,256.000885 107.915169,256.000977 113.094887,256.357117 
	C122.767830,256.808197 132.179642,256.939758 141.591599,256.952667 
	C142.782700,256.954285 143.974640,256.333557 145.624435,256.000977 
	C160.426483,255.985245 174.770279,255.969727 189.114090,255.954208 
	C199.256622,268.886993 212.411438,277.567841 227.859985,283.579956 
z"/>
<path fill="#9D1AAE" opacity="1.000000" stroke="none" 
	d="
M344.099060,208.427368 
	C347.296539,207.665115 350.425781,207.047974 353.555939,207.043167 
	C395.676270,206.978592 437.796753,206.999344 480.375244,206.998688 
	C480.878021,216.022308 480.922791,225.046173 480.442566,234.534668 
	C435.797028,234.999466 391.676483,235.019882 347.556030,234.956802 
	C344.425873,234.952316 341.296539,234.333649 338.166870,234.000565 
	C340.121674,225.619431 342.076477,217.238297 344.099060,208.427368 
z"/>
<path fill="#8A18BA" opacity="1.000000" stroke="none" 
	d="
M480.833557,302.001465 
	C480.884735,307.492188 480.943726,312.982849 480.976532,318.473694 
	C480.980347,319.112122 480.838776,319.751404 480.730286,320.685822 
	C414.276215,320.685822 347.945282,320.685822 281.307953,320.685822 
	C281.307953,318.357391 281.307953,316.097595 281.307953,313.249329 
	C286.203400,313.249329 291.261292,313.249329 297.032135,313.249329 
	C297.032135,309.441223 297.032135,306.178162 297.557343,302.458069 
	C358.999542,302.001129 419.916565,302.001312 480.833557,302.001465 
z"/>
<path fill="#8C18B9" opacity="1.000000" stroke="none" 
	d="
M480.900726,301.539368 
	C419.916565,302.001312 358.999542,302.001129 297.624512,302.001221 
	C297.051422,300.519531 296.936401,299.037567 296.781860,297.046600 
	C291.680115,297.046600 286.605804,297.046600 281.777344,297.046600 
	C281.386505,296.257690 281.136322,295.980652 281.122772,295.692444 
	C280.638397,285.387726 280.641449,285.387573 292.264740,281.403198 
	C295.640411,281.706604 298.120392,281.977997 300.600800,281.981598 
	C323.344910,282.014832 346.089111,282.001556 368.900757,282.445312 
	C368.968262,284.811279 368.968262,286.733734 368.968262,288.992981 
	C395.245972,288.992981 420.843536,289.013519 446.440582,288.908936 
	C447.351837,288.905212 448.258057,287.663208 449.624878,286.998413 
	C460.333160,286.998566 470.583252,286.998596 480.833344,286.998657 
	C480.878204,291.691528 480.923065,296.384430 480.900726,301.539368 
z"/>
<path fill="#9319B4" opacity="1.000000" stroke="none" 
	d="
M368.833282,282.001831 
	C346.089111,282.001556 323.344910,282.014832 300.600800,281.981598 
	C298.120392,281.977997 295.640411,281.706604 292.631409,281.418091 
	C302.815643,275.584808 313.104340,269.304779 321.948120,260.201385 
	C327.511627,260.481201 332.471344,261.010620 337.423950,260.950653 
	C354.365051,260.745483 371.302521,260.234161 388.243652,260.031769 
	C401.500214,259.873352 414.761627,259.874603 428.018250,260.030914 
	C445.624481,260.238495 463.228180,260.665833 480.832947,260.998779 
	C480.877716,269.355865 480.922455,277.712952 480.900269,286.534363 
	C470.583252,286.998596 460.333160,286.998566 449.557983,286.537170 
	C449.032898,281.824005 449.032898,277.572235 449.032898,273.312622 
	C421.995422,273.312622 395.670807,273.312622 368.833282,273.312622 
	C368.833282,276.411194 368.833282,279.206512 368.833282,282.001831 
z"/>
<path fill="#A31BAA" opacity="1.000000" stroke="none" 
	d="
M145.166092,170.000931 
	C154.749924,170.000839 164.333771,170.000732 174.375687,170.000549 
	C173.212082,178.042587 171.590378,186.084717 169.494598,194.615082 
	C165.713760,195.402359 162.407379,195.957016 159.100235,195.961655 
	C117.122314,196.020477 75.144264,196.000244 33.166252,196.000153 
	C33.120724,187.643005 33.075195,179.285843 33.097889,170.464539 
	C43.416546,170.000656 53.666977,170.000931 64.443909,170.444611 
	C64.970406,172.805954 64.970406,174.723877 64.970406,176.692642 
	C75.984566,176.692642 86.341949,176.692642 96.820717,176.692642 
	C96.946083,174.263672 97.056091,172.132294 97.166100,170.000931 
	C102.084801,170.001022 107.003494,170.001114 112.446304,170.444611 
	C112.970406,172.805954 112.970406,174.723877 112.970406,176.692657 
	C123.984566,176.692657 134.341949,176.692657 144.820709,176.692657 
	C144.946075,174.263687 145.056091,172.132309 145.166092,170.000931 
z"/>
<path fill="#6813D1" opacity="1.000000" stroke="none" 
	d="
M210.000000,465.000610 
	C255.135956,465.000671 299.771912,464.995941 344.407867,465.005707 
	C351.469330,465.007263 355.158813,469.826141 352.628174,476.387604 
	C351.892029,478.296295 349.324615,479.600677 347.403961,480.896362 
	C346.712524,481.362823 345.455048,480.999146 344.455902,480.999176 
	C286.162689,481.000610 227.869461,481.003876 169.576233,480.995728 
	C162.916946,480.994812 160.877625,478.945526 161.000412,472.508759 
	C161.102936,467.133270 163.104385,465.042419 168.528275,465.020050 
	C182.185318,464.963654 195.842728,465.000885 210.000000,465.000610 
z"/>
<path fill="#A01AAC" opacity="1.000000" stroke="none" 
	d="
M33.098633,196.464371 
	C75.144264,196.000244 117.122314,196.020477 159.100235,195.961655 
	C162.407379,195.957016 165.713760,195.402359 169.427414,195.051712 
	C170.211716,202.380844 170.589111,209.761566 170.441650,217.570435 
	C124.333542,217.998367 78.750305,217.998154 33.167068,217.997925 
	C33.121716,210.974808 33.076363,203.951706 33.098633,196.464371 
z"/>
<path fill="#AB1CA4" opacity="1.000000" stroke="none" 
	d="
M368.832672,175.998062 
	C359.916321,175.997757 351.000000,175.997452 341.625671,175.996536 
	C336.868073,167.555618 332.568481,159.115311 328.679688,150.336121 
	C379.671417,149.997864 430.252380,149.998489 480.833313,149.999115 
	C480.877655,158.355637 480.922028,166.712173 480.899475,175.532883 
	C470.582977,175.997467 460.333313,175.997849 449.558655,175.535614 
	C449.033630,170.495712 449.033630,165.918427 449.033630,161.334229 
	C438.009735,161.334229 427.669159,161.334229 416.832672,161.334229 
	C416.832672,166.442352 416.832672,171.220200 416.832672,175.998062 
	C411.914734,175.998123 406.996796,175.998169 401.556244,175.535614 
	C401.033630,170.495712 401.033630,165.918427 401.033630,161.334229 
	C390.009735,161.334229 379.669159,161.334229 368.832672,161.334229 
	C368.832672,166.442352 368.832672,171.220200 368.832672,175.998062 
z"/>
<path fill="#9719B1" opacity="1.000000" stroke="none" 
	d="
M480.900055,260.534485 
	C463.228180,260.665833 445.624481,260.238495 428.018250,260.030914 
	C414.761627,259.874603 401.500214,259.873352 388.243652,260.031769 
	C371.302521,260.234161 354.365051,260.745483 337.423950,260.950653 
	C332.471344,261.010620 327.511627,260.481201 322.252777,260.058014 
	C327.247864,251.477524 332.545349,243.060959 338.004822,234.322479 
	C341.296539,234.333649 344.425873,234.952316 347.556030,234.956802 
	C391.676483,235.019882 435.797028,234.999466 480.375610,234.999054 
	C480.878174,243.355927 480.922668,251.713058 480.900055,260.534485 
M417.000183,245.648224 
	C417.000183,249.378845 417.000183,253.109482 417.000183,256.719757 
	C428.078186,256.719757 438.314972,256.719757 448.660828,256.719757 
	C448.660828,251.401459 448.660828,246.368301 448.660828,241.005035 
	C438.884369,241.005035 429.442047,241.104782 420.004059,240.947357 
	C416.969299,240.896713 416.845612,242.525818 417.000183,245.648224 
M388.485657,241.000000 
	C382.083252,241.000000 375.680847,241.000000 369.414978,241.000000 
	C369.414978,246.763702 369.414978,251.799622 369.414978,256.729004 
	C380.065491,256.729004 390.298981,256.729004 400.672546,256.729004 
	C400.672546,251.422287 400.672546,246.390961 400.672546,241.000000 
	C396.725159,241.000000 393.101288,241.000000 388.485657,241.000000 
z"/>
<path fill="#7014CC" opacity="1.000000" stroke="none" 
	d="
M308.833008,424.000793 
	C309.397583,427.017975 310.085693,430.018341 310.498932,433.056122 
	C311.182861,438.083801 311.689697,443.135590 312.321655,448.615173 
	C275.349030,448.615173 238.889725,448.615173 201.546890,448.615173 
	C202.646133,440.479279 203.709671,432.607635 205.428131,424.368103 
	C240.333023,424.000458 274.583008,424.000610 308.833008,424.000793 
z"/>
<path fill="#AE1CA2" opacity="1.000000" stroke="none" 
	d="
M480.900696,149.534821 
	C430.252380,149.998489 379.671417,149.997864 328.632996,149.996368 
	C321.413330,143.316299 314.651154,136.637115 307.582764,129.798630 
	C310.405029,128.760803 313.521301,127.177742 316.664062,127.123222 
	C331.918793,126.858589 347.181152,126.947021 362.439484,127.071640 
	C364.469666,127.088219 366.492310,128.025101 368.763672,129.284622 
	C369.008881,134.950409 369.008881,139.867355 369.008881,144.730164 
	C374.691650,144.730164 379.618317,144.730164 384.957489,144.730164 
	C384.957489,139.351379 384.957489,134.232605 384.957489,129.113831 
	C390.025208,125.686073 395.244690,126.354126 400.764587,129.285339 
	C401.008881,134.952393 401.008881,139.871323 401.008881,144.733063 
	C417.357941,144.733063 432.945374,144.733063 448.957489,144.733063 
	C448.957489,139.355560 448.957489,134.234695 448.957489,129.113831 
	C451.046631,128.411102 453.119965,127.163094 455.227692,127.102013 
	C463.451599,126.863708 471.686371,127.001236 480.375183,126.998718 
	C480.878143,134.355804 480.923096,141.713181 480.900696,149.534821 
z"/>
<path fill="#9D1AAE" opacity="1.000000" stroke="none" 
	d="
M33.099419,218.461761 
	C78.750305,217.998154 124.333542,217.998367 170.374786,217.998260 
	C172.793259,223.758530 174.753723,229.519119 176.315506,235.639603 
	C128.333328,235.999084 80.749817,235.998657 33.166309,235.998230 
	C33.121464,230.307358 33.076618,224.616470 33.099419,218.461761 
z"/>
<path fill="#7515C8" opacity="1.000000" stroke="none" 
	d="
M308.900330,423.560883 
	C274.583008,424.000610 240.333023,424.000458 205.625031,424.000549 
	C205.831329,416.502594 206.495636,409.004395 207.180969,401.268860 
	C240.387726,401.268860 273.312775,401.268860 306.695587,401.268860 
	C307.450104,408.525330 308.208923,415.823151 308.900330,423.560883 
z"/>
<path fill="#9719B1" opacity="1.000000" stroke="none" 
	d="
M319.119720,238.038422 
	C308.832367,256.275299 292.945465,267.513062 272.918854,271.689880 
	C253.033783,275.837158 233.717743,273.027771 216.401566,261.136383 
	C207.300949,254.886826 199.947327,247.096313 194.668365,237.341003 
	C201.637085,237.002213 208.191376,237.005936 214.927734,237.302765 
	C219.003296,240.847961 222.689270,244.396759 226.831009,247.293976 
	C237.320053,254.631195 249.190918,256.891724 261.797089,256.004120 
	C276.880371,254.942108 288.992096,248.111450 299.294312,237.115906 
	C306.166992,237.520844 312.643372,237.779633 319.119720,238.038422 
z"/>
<path fill="#9719B1" opacity="1.000000" stroke="none" 
	d="
M33.098736,236.462494 
	C80.749817,235.998657 128.333328,235.999084 176.374847,235.999451 
	C180.827301,242.445312 184.821732,248.891251 188.965118,255.645691 
	C174.770279,255.969727 160.426483,255.985245 145.557465,255.538132 
	C145.032272,250.499298 145.032272,245.923111 145.032272,241.337372 
	C134.008057,241.337372 123.670357,241.337372 112.833801,241.337372 
	C112.833801,246.447418 112.833801,251.224258 112.833801,256.001099 
	C107.915169,256.000977 102.996529,256.000885 97.555084,255.538132 
	C97.032265,250.499298 97.032265,245.923111 97.032265,241.337372 
	C86.007660,241.337372 75.670181,241.337372 64.833801,241.337372 
	C64.833801,246.447418 64.833801,251.224258 64.833801,256.001099 
	C54.583290,256.000946 44.332783,256.000793 33.624191,256.000854 
	C33.121132,249.642960 33.076149,243.284851 33.098736,236.462494 
z"/>
<path fill="#AE1CA2" opacity="1.000000" stroke="none" 
	d="
M200.936584,154.860687 
	C212.685349,140.607803 227.843079,131.499115 245.945602,129.335312 
	C273.053162,126.095154 296.527832,134.064453 313.769257,156.836914 
	C311.363159,157.982819 309.222961,158.688751 307.029083,158.959091 
	C302.997437,159.455872 298.934204,159.696167 294.575378,159.900879 
	C293.069641,158.896835 291.830994,158.087234 290.682343,157.165421 
	C282.988617,150.990967 274.143860,147.249817 264.466492,146.095306 
	C248.791962,144.225357 234.490784,148.038330 221.606247,158.033371 
	C214.017792,158.878159 206.815659,160.503601 199.877411,156.962814 
	C199.918518,156.798782 199.959625,156.634735 200.209717,156.046814 
	C200.608887,155.380814 200.781509,155.126709 200.936584,154.860687 
z"/>
<path fill="#9D1AAE" opacity="1.000000" stroke="none" 
	d="
M319.421997,237.860504 
	C312.643372,237.779633 306.166992,237.520844 299.448242,236.809341 
	C302.138519,231.706329 305.390045,227.222916 307.931610,222.367844 
	C312.076813,214.449326 312.247040,205.712875 312.622986,197.005432 
	C318.331360,197.005341 323.582855,197.005386 328.834381,197.005432 
	C330.308990,211.574829 326.810425,225.030441 319.421997,237.860504 
z"/>
<path fill="#9D1AAE" opacity="1.000000" stroke="none" 
	d="
M214.745682,237.009644 
	C208.191376,237.005936 201.637085,237.002213 194.624939,236.998169 
	C186.610321,224.671463 184.085617,211.197479 185.554321,196.468536 
	C191.330780,196.005035 196.582855,196.005325 201.902618,196.467346 
	C200.821869,212.012680 205.277115,225.310150 214.745682,237.009644 
z"/>
<path fill="#A31BAA" opacity="1.000000" stroke="none" 
	d="
M328.901184,196.562454 
	C323.582855,197.005386 318.331360,197.005341 312.556091,196.577667 
	C311.823486,194.373199 311.675354,192.586761 311.395966,190.821091 
	C309.469482,178.647171 302.774597,169.022705 294.884125,160.043396 
	C298.934204,159.696167 302.997437,159.455872 307.029083,158.959091 
	C309.222961,158.688751 311.363159,157.982819 313.791992,157.186127 
	C321.721039,165.119629 325.467468,175.250351 327.922485,185.927750 
	C328.681885,189.230515 328.641937,192.717072 328.901184,196.562454 
z"/>
<path fill="#A31BAA" opacity="1.000000" stroke="none" 
	d="
M201.834946,196.005600 
	C196.582855,196.005325 191.330780,196.005035 185.621948,196.005402 
	C185.177353,181.382797 190.635147,168.740158 199.569336,157.106354 
	C206.815659,160.503601 214.017792,158.878159 221.416229,158.313583 
	C209.854126,168.303085 203.504364,180.915253 201.834946,196.005600 
z"/>
<path fill="#8C18B9" opacity="1.000000" stroke="none" 
	d="
M261.763916,296.996368 
	C257.358307,296.998779 253.427475,296.998779 249.255615,296.998779 
	C249.255615,293.931244 249.255615,291.349579 249.255615,288.424255 
	C254.272446,288.424255 259.317932,288.424255 264.919678,288.424255 
	C263.468567,291.154266 268.273376,295.408783 261.763916,296.996368 
z"/>
<path fill="#8A18BA" opacity="1.000000" stroke="none" 
	d="
M263.630310,320.906708 
	C258.705078,320.970123 254.246399,320.970123 249.395660,320.970123 
	C249.395660,318.403168 249.395660,316.034180 249.395660,313.327423 
	C254.344788,313.327423 259.379425,313.327423 265.264893,313.327423 
	C264.856628,315.954376 264.476746,318.398834 263.630310,320.906708 
z"/>
<path fill="#A31BAA" opacity="1.000000" stroke="none" 
	d="
M200.685410,154.952530 
	C200.781509,155.126709 200.608887,155.380814 200.271942,155.800903 
	C200.228210,155.667343 200.331223,155.355850 200.685410,154.952530 
z"/>
<path fill="#000000" opacity="1.000000" stroke="none" 
	d="
M113.100388,134.559052 
	C113.167046,138.122452 113.167046,141.246979 113.167046,144.681015 
	C96.993576,144.681015 81.323807,144.681015 64.970215,144.681015 
	C64.970215,141.748489 64.970215,138.826431 64.901588,135.451111 
	C64.943596,133.189743 65.054237,131.381638 65.182259,129.289444 
	C80.983261,129.289444 96.690376,129.289444 112.790451,129.289444 
	C112.873055,130.929688 112.953392,132.524933 113.100388,134.559052 
z"/>
<path fill="#000000" opacity="1.000000" stroke="none" 
	d="
M448.493652,129.066650 
	C448.957489,134.234695 448.957489,139.355560 448.957489,144.733063 
	C432.945374,144.733063 417.357941,144.733063 401.008881,144.733063 
	C401.008881,139.871323 401.008881,134.952393 401.025696,129.573639 
	C416.704926,129.082382 432.367371,129.050919 448.493652,129.066650 
z"/>
<path fill="#000000" opacity="1.000000" stroke="none" 
	d="
M384.495544,129.066666 
	C384.957489,134.232605 384.957489,139.351379 384.957489,144.730164 
	C379.618317,144.730164 374.691650,144.730164 369.008881,144.730164 
	C369.008881,139.867355 369.008881,134.950409 369.025696,129.573639 
	C374.039551,129.082397 379.036560,129.050949 384.495544,129.066666 
z"/>
<path fill="#000000" opacity="1.000000" stroke="none" 
	d="
M145.100403,134.559113 
	C145.167038,138.111649 145.167038,141.225372 145.167038,144.667450 
	C139.673721,144.667450 134.650406,144.667450 128.970215,144.667450 
	C128.970215,141.731354 128.970215,138.817841 128.901581,135.451096 
	C128.941238,133.194351 129.049515,131.390839 129.175293,129.295929 
	C134.306946,129.295929 139.359512,129.295929 144.792374,129.295929 
	C144.874527,130.937973 144.954147,132.529129 145.100403,134.559113 
z"/>
<path fill="#000000" opacity="1.000000" stroke="none" 
	d="
M432.900299,358.456970 
	C432.946320,356.522003 433.059418,355.044006 433.193939,353.285675 
	C438.298615,353.285675 443.360504,353.285675 448.799500,353.285675 
	C448.879303,354.604950 448.955597,355.866211 449.099304,357.563782 
	C449.166718,361.442871 449.166718,364.885651 449.166718,368.660370 
	C443.671356,368.660370 438.653992,368.660370 432.967346,368.660370 
	C432.967346,365.400085 432.967346,362.157013 432.900299,358.456970 
z"/>
<path fill="#000000" opacity="1.000000" stroke="none" 
	d="
M128.903397,58.444656 
	C128.834793,55.214390 128.834793,52.428089 128.834793,49.322750 
	C134.323288,49.322750 139.353287,49.322750 145.031540,49.322750 
	C145.031540,53.930679 145.031540,58.502754 145.099289,63.537525 
	C139.970047,64.469009 134.773041,64.937798 128.972000,65.461075 
	C128.972000,62.685783 128.972000,60.787201 128.903397,58.444656 
z"/>
<path fill="#000000" opacity="1.000000" stroke="none" 
	d="
M96.903397,58.444672 
	C96.834793,55.215008 96.834793,52.429325 96.834793,49.323650 
	C102.321182,49.323650 107.351494,49.323650 113.030060,49.323650 
	C113.030060,51.926876 113.030060,54.512138 113.097633,57.549072 
	C113.059464,60.130035 112.953712,62.259323 112.832977,64.690552 
	C107.686661,64.690552 102.645340,64.690552 96.972008,64.690552 
	C96.972008,62.721447 96.972008,60.805050 96.903397,58.444672 
z"/>
<path fill="#000000" opacity="1.000000" stroke="none" 
	d="
M64.903397,58.444672 
	C64.834793,55.215008 64.834793,52.429325 64.834793,49.323650 
	C70.321182,49.323650 75.351494,49.323650 81.030060,49.323650 
	C81.030060,51.926876 81.030060,54.512138 81.097633,57.549072 
	C81.059464,60.130035 80.953712,62.259323 80.832977,64.690552 
	C75.686661,64.690552 70.645340,64.690552 64.972008,64.690552 
	C64.972008,62.721447 64.972008,60.805050 64.903397,58.444672 
z"/>
<path fill="#000000" opacity="1.000000" stroke="none" 
	d="
M64.901886,285.432281 
	C64.833618,281.210663 64.833618,277.421875 64.833618,273.319031 
	C91.683159,273.319031 118.002823,273.319031 145.032974,273.319031 
	C145.032974,276.903351 145.032974,280.493134 145.099686,284.541229 
	C145.047623,286.155334 144.928864,287.311157 144.783279,288.727905 
	C143.489471,288.818390 142.195038,288.987030 140.900482,288.987885 
	C117.092430,289.003815 93.284363,289.006104 69.476311,288.988922 
	C67.305000,288.987366 64.472748,289.784302 64.901886,285.432281 
z"/>
<path fill="#000000" opacity="1.000000" stroke="none" 
	d="
M417.092529,176.355408 
	C416.832672,171.220200 416.832672,166.442352 416.832672,161.334229 
	C427.669159,161.334229 438.009735,161.334229 449.033630,161.334229 
	C449.033630,165.918427 449.033630,170.495712 449.100464,175.535553 
	C447.976501,176.331100 446.785278,176.952896 445.594910,176.951309 
	C436.180634,176.938812 426.766541,176.807526 417.092529,176.355408 
z"/>
<path fill="#000000" opacity="1.000000" stroke="none" 
	d="
M369.092529,176.355408 
	C368.832672,171.220200 368.832672,166.442352 368.832672,161.334229 
	C379.669159,161.334229 390.009735,161.334229 401.033630,161.334229 
	C401.033630,165.918427 401.033630,170.495712 401.100464,175.535568 
	C399.976501,176.331116 398.785278,176.952911 397.594910,176.951340 
	C388.180634,176.938812 378.766541,176.807526 369.092529,176.355408 
z"/>
<path fill="#000000" opacity="1.000000" stroke="none" 
	d="
M97.099380,169.549316 
	C97.056091,172.132294 96.946083,174.263672 96.820717,176.692642 
	C86.341949,176.692642 75.984566,176.692642 64.970406,176.692642 
	C64.970406,174.723877 64.970406,172.805954 64.902153,170.444458 
	C64.833900,167.211609 64.833900,164.422363 64.833900,161.318207 
	C75.664726,161.318207 86.011757,161.318207 97.032654,161.318207 
	C97.032654,163.920395 97.032654,166.509048 97.099380,169.549316 
z"/>
<path fill="#000000" opacity="1.000000" stroke="none" 
	d="
M145.099365,169.549301 
	C145.056091,172.132309 144.946075,174.263687 144.820709,176.692657 
	C134.341949,176.692657 123.984566,176.692657 112.970406,176.692657 
	C112.970406,174.723877 112.970406,172.805954 112.902153,170.444458 
	C112.833900,167.211609 112.833900,164.422363 112.833900,161.318207 
	C123.664719,161.318207 134.011749,161.318207 145.032654,161.318207 
	C145.032654,163.920395 145.032654,166.509033 145.099365,169.549301 
z"/>
<path fill="#000000" opacity="1.000000" stroke="none" 
	d="
M113.094887,256.357117 
	C112.833801,251.224258 112.833801,246.447418 112.833801,241.337372 
	C123.670357,241.337372 134.008057,241.337372 145.032272,241.337372 
	C145.032272,245.923111 145.032272,250.499298 145.099243,255.538330 
	C143.974640,256.333557 142.782700,256.954285 141.591599,256.952667 
	C132.179642,256.939758 122.767830,256.808197 113.094887,256.357117 
z"/>
<path fill="#000000" opacity="1.000000" stroke="none" 
	d="
M65.094887,256.357117 
	C64.833801,251.224258 64.833801,246.447418 64.833801,241.337372 
	C75.670181,241.337372 86.007660,241.337372 97.032265,241.337372 
	C97.032265,245.923111 97.032265,250.499298 97.099228,255.538330 
	C95.974648,256.333527 94.782700,256.954285 93.591606,256.952637 
	C84.179634,256.939758 74.767830,256.808197 65.094887,256.357117 
z"/>
<path fill="#000000" opacity="1.000000" stroke="none" 
	d="
M368.900757,282.445312 
	C368.833282,279.206512 368.833282,276.411194 368.833282,273.312622 
	C395.670807,273.312622 421.995422,273.312622 449.032898,273.312622 
	C449.032898,277.572235 449.032898,281.824005 449.099792,286.537048 
	C448.258057,287.663208 447.351837,288.905212 446.440582,288.908936 
	C420.843536,289.013519 395.245972,288.992981 368.968262,288.992981 
	C368.968262,286.733734 368.968262,284.811279 368.900757,282.445312 
z"/>
<path fill="#000000" opacity="1.000000" stroke="none" 
	d="
M417.000732,245.172394 
	C416.845612,242.525818 416.969299,240.896713 420.004059,240.947357 
	C429.442047,241.104782 438.884369,241.005035 448.660828,241.005035 
	C448.660828,246.368301 448.660828,251.401459 448.660828,256.719757 
	C438.314972,256.719757 428.078186,256.719757 417.000183,256.719757 
	C417.000183,253.109482 417.000183,249.378845 417.000732,245.172394 
z"/>
<path fill="#000000" opacity="1.000000" stroke="none" 
	d="
M388.981537,241.000000 
	C393.101288,241.000000 396.725159,241.000000 400.672546,241.000000 
	C400.672546,246.390961 400.672546,251.422287 400.672546,256.729004 
	C390.298981,256.729004 380.065491,256.729004 369.414978,256.729004 
	C369.414978,251.799622 369.414978,246.763702 369.414978,241.000000 
	C375.680847,241.000000 382.083252,241.000000 388.981537,241.000000 
z"/>
<path fill="#000000" opacity="1.000000" stroke="none" 
	d="
M201.902618,196.467346 
	C203.504364,180.915253 209.854126,168.303085 221.843323,158.296127 
	C234.490784,148.038330 248.791962,144.225357 264.466492,146.095306 
	C274.143860,147.249817 282.988617,150.990967 290.682343,157.165421 
	C291.830994,158.087234 293.069641,158.896835 294.575378,159.900879 
	C302.774597,169.022705 309.469482,178.647171 311.395966,190.821091 
	C311.675354,192.586761 311.823486,194.373199 312.099243,196.577789 
	C312.247040,205.712875 312.076813,214.449326 307.931610,222.367844 
	C305.390045,227.222916 302.138519,231.706329 299.051910,236.663208 
	C288.992096,248.111450 276.880371,254.942108 261.797089,256.004120 
	C249.190918,256.891724 237.320053,254.631195 226.831009,247.293976 
	C222.689270,244.396759 219.003296,240.847961 214.927734,237.302765 
	C205.277115,225.310150 200.821869,212.012680 201.902618,196.467346 
M217.977905,210.837250 
	C220.491028,223.791321 228.421188,232.838959 240.072342,237.753784 
	C254.640686,243.899185 269.256653,242.977325 282.145172,232.873795 
	C289.494476,227.112549 294.815948,219.712341 296.797028,209.530777 
	C296.864441,205.871567 296.904694,202.211639 297.003998,198.553284 
	C297.419434,183.252731 285.821686,167.766724 271.357422,163.091415 
	C257.146851,158.498108 243.562515,160.149094 231.239731,169.274368 
	C220.163818,177.476349 213.727448,196.871841 217.977905,210.837250 
z"/>
<path fill="#A31BAA" opacity="1.000000" stroke="none" 
	d="
M217.885544,210.041611 
	C213.727448,196.871841 220.163818,177.476349 231.239731,169.274368 
	C243.562515,160.149094 257.146851,158.498108 271.357422,163.091415 
	C285.821686,167.766724 297.419434,183.252731 297.003998,198.553284 
	C296.904694,202.211639 296.864441,205.871567 296.055786,209.640900 
	C293.352417,209.501617 291.390839,209.040222 289.428131,209.035370 
	C268.200256,208.982986 246.972046,208.966492 225.744339,209.048019 
	C223.123505,209.058090 220.505081,209.695114 217.885544,210.041611 
z"/>
<path fill="#9D1AAE" opacity="1.000000" stroke="none" 
	d="
M217.931732,210.439423 
	C220.505081,209.695114 223.123505,209.058090 225.744339,209.048019 
	C246.972046,208.966492 268.200256,208.982986 289.428131,209.035370 
	C291.390839,209.040222 293.352417,209.501617 295.710632,209.900208 
	C294.815948,219.712341 289.494476,227.112549 282.145172,232.873795 
	C269.256653,242.977325 254.640686,243.899185 240.072342,237.753784 
	C228.421188,232.838959 220.491028,223.791321 217.931732,210.439423 
z"/>
</svg>